<mxfile host="app.diagrams.net" modified="2023-12-21T20:09:11.142Z" agent="Mozilla/5.0 (X11; Linux x86_64) AppleWebKit/537.36 (KHTML, like Gecko) Chrome/118.0.0.0 Safari/537.36" etag="zX9T2dxVCJ1logHpYTIG" version="22.1.11" type="device">
  <diagram name="Страница — 1" id="8s22DaJ8At8lNWUAPyF_">
    <mxGraphModel dx="989" dy="1689" grid="1" gridSize="10" guides="1" tooltips="1" connect="1" arrows="1" fold="1" page="1" pageScale="1" pageWidth="827" pageHeight="1169" math="0" shadow="0">
      <root>
        <mxCell id="0" />
        <mxCell id="1" parent="0" />
        <mxCell id="6iyYh72mXwIMYlcsx8jP-120" style="edgeStyle=orthogonalEdgeStyle;rounded=0;orthogonalLoop=1;jettySize=auto;html=1;exitX=0.5;exitY=1;exitDx=0;exitDy=0;entryX=0.5;entryY=0;entryDx=0;entryDy=0;strokeWidth=3;" edge="1" parent="1" source="6iyYh72mXwIMYlcsx8jP-2" target="6iyYh72mXwIMYlcsx8jP-4">
          <mxGeometry relative="1" as="geometry" />
        </mxCell>
        <mxCell id="6iyYh72mXwIMYlcsx8jP-2" value="Начало" style="rounded=1;whiteSpace=wrap;html=1;" vertex="1" parent="1">
          <mxGeometry x="356" y="-190" width="116" height="30" as="geometry" />
        </mxCell>
        <mxCell id="6iyYh72mXwIMYlcsx8jP-66" style="edgeStyle=orthogonalEdgeStyle;rounded=0;orthogonalLoop=1;jettySize=auto;html=1;exitX=0.5;exitY=1;exitDx=0;exitDy=0;entryX=0.5;entryY=0;entryDx=0;entryDy=0;strokeWidth=3;" edge="1" parent="1" source="6iyYh72mXwIMYlcsx8jP-4" target="6iyYh72mXwIMYlcsx8jP-65">
          <mxGeometry relative="1" as="geometry" />
        </mxCell>
        <mxCell id="6iyYh72mXwIMYlcsx8jP-4" value="&lt;div&gt;vector&amp;lt;vector&amp;lt;double&amp;gt;&amp;gt; matrix;&lt;/div&gt;&lt;div&gt;&amp;nbsp; &amp;nbsp; int n = 3;&lt;/div&gt;&lt;div&gt;&amp;nbsp; &amp;nbsp; int m = 3;&lt;/div&gt;&lt;div&gt;&amp;nbsp; &amp;nbsp; double T = 20;&lt;/div&gt;&lt;div&gt;&amp;nbsp; &amp;nbsp; int t3 = 3;&lt;/div&gt;&lt;div&gt;&amp;nbsp; &amp;nbsp; double radius = 1.0f;&lt;/div&gt;&lt;div&gt;&amp;nbsp; &amp;nbsp; double alpha = 0.05351f;&lt;/div&gt;&lt;div&gt;&lt;div&gt;float step = (float)(T / (n-1));&lt;/div&gt;&lt;div&gt;&amp;nbsp; &amp;nbsp; &amp;nbsp; &amp;nbsp; this-&amp;gt;matrix = vector&amp;lt;vector&amp;lt;double&amp;gt;&amp;gt;(n, vector&amp;lt;double&amp;gt;(m, 0));&lt;/div&gt;&lt;div&gt;&amp;nbsp; &amp;nbsp; &amp;nbsp; &amp;nbsp;&amp;nbsp;double norm = 1;&lt;/div&gt;&lt;div&gt;&amp;nbsp; &amp;nbsp; &amp;nbsp; &amp;nbsp; int count = 0;&lt;/div&gt;&lt;/div&gt;" style="rounded=0;whiteSpace=wrap;html=1;" vertex="1" parent="1">
          <mxGeometry x="226" y="-130" width="376" height="160" as="geometry" />
        </mxCell>
        <mxCell id="6iyYh72mXwIMYlcsx8jP-5" style="edgeStyle=orthogonalEdgeStyle;rounded=0;orthogonalLoop=1;jettySize=auto;html=1;exitX=0.5;exitY=1;exitDx=0;exitDy=0;entryX=0.5;entryY=0;entryDx=0;entryDy=0;strokeWidth=3;" edge="1" parent="1" source="6iyYh72mXwIMYlcsx8jP-8" target="6iyYh72mXwIMYlcsx8jP-10">
          <mxGeometry relative="1" as="geometry" />
        </mxCell>
        <mxCell id="6iyYh72mXwIMYlcsx8jP-6" value="&lt;font style=&quot;font-size: 15px;&quot;&gt;Да&lt;/font&gt;" style="edgeLabel;html=1;align=center;verticalAlign=middle;resizable=0;points=[];" vertex="1" connectable="0" parent="6iyYh72mXwIMYlcsx8jP-5">
          <mxGeometry x="-0.2667" relative="1" as="geometry">
            <mxPoint as="offset" />
          </mxGeometry>
        </mxCell>
        <mxCell id="6iyYh72mXwIMYlcsx8jP-7" style="edgeStyle=orthogonalEdgeStyle;rounded=0;orthogonalLoop=1;jettySize=auto;html=1;exitX=0;exitY=0.5;exitDx=0;exitDy=0;entryX=1;entryY=0.5;entryDx=0;entryDy=0;strokeWidth=3;" edge="1" parent="1" source="6iyYh72mXwIMYlcsx8jP-8" target="6iyYh72mXwIMYlcsx8jP-64">
          <mxGeometry relative="1" as="geometry" />
        </mxCell>
        <mxCell id="6iyYh72mXwIMYlcsx8jP-8" value="norm &amp;gt; eps &amp;amp;&amp;amp; count &amp;lt; maxIteration" style="rhombus;whiteSpace=wrap;html=1;" vertex="1" parent="1">
          <mxGeometry x="301.25" y="290" width="225.5" height="50" as="geometry" />
        </mxCell>
        <mxCell id="6iyYh72mXwIMYlcsx8jP-9" style="edgeStyle=orthogonalEdgeStyle;rounded=0;orthogonalLoop=1;jettySize=auto;html=1;exitX=0.5;exitY=1;exitDx=0;exitDy=0;entryX=0.5;entryY=0;entryDx=0;entryDy=0;" edge="1" parent="1" source="6iyYh72mXwIMYlcsx8jP-10" target="6iyYh72mXwIMYlcsx8jP-15">
          <mxGeometry relative="1" as="geometry" />
        </mxCell>
        <mxCell id="6iyYh72mXwIMYlcsx8jP-10" value="int i = 0;" style="rounded=0;whiteSpace=wrap;html=1;" vertex="1" parent="1">
          <mxGeometry x="371" y="380" width="86" height="30" as="geometry" />
        </mxCell>
        <mxCell id="6iyYh72mXwIMYlcsx8jP-11" style="edgeStyle=orthogonalEdgeStyle;rounded=0;orthogonalLoop=1;jettySize=auto;html=1;exitX=0.5;exitY=1;exitDx=0;exitDy=0;entryX=0.5;entryY=0;entryDx=0;entryDy=0;strokeWidth=3;" edge="1" parent="1" source="6iyYh72mXwIMYlcsx8jP-15" target="6iyYh72mXwIMYlcsx8jP-17">
          <mxGeometry relative="1" as="geometry">
            <mxPoint x="414" y="514" as="targetPoint" />
          </mxGeometry>
        </mxCell>
        <mxCell id="6iyYh72mXwIMYlcsx8jP-12" value="&lt;font style=&quot;font-size: 15px;&quot;&gt;Да&lt;/font&gt;" style="edgeLabel;html=1;align=center;verticalAlign=middle;resizable=0;points=[];" vertex="1" connectable="0" parent="6iyYh72mXwIMYlcsx8jP-11">
          <mxGeometry x="-0.2835" y="-2" relative="1" as="geometry">
            <mxPoint as="offset" />
          </mxGeometry>
        </mxCell>
        <mxCell id="6iyYh72mXwIMYlcsx8jP-13" style="edgeStyle=orthogonalEdgeStyle;rounded=0;orthogonalLoop=1;jettySize=auto;html=1;exitX=0;exitY=0.5;exitDx=0;exitDy=0;entryX=0;entryY=0.5;entryDx=0;entryDy=0;strokeWidth=3;" edge="1" parent="1" source="6iyYh72mXwIMYlcsx8jP-15" target="6iyYh72mXwIMYlcsx8jP-63">
          <mxGeometry relative="1" as="geometry">
            <Array as="points">
              <mxPoint x="50" y="455" />
              <mxPoint x="50" y="1720" />
            </Array>
          </mxGeometry>
        </mxCell>
        <mxCell id="6iyYh72mXwIMYlcsx8jP-14" value="&lt;font style=&quot;font-size: 15px;&quot;&gt;Нет&lt;/font&gt;" style="edgeLabel;html=1;align=center;verticalAlign=middle;resizable=0;points=[];" vertex="1" connectable="0" parent="6iyYh72mXwIMYlcsx8jP-13">
          <mxGeometry x="-0.9729" y="2" relative="1" as="geometry">
            <mxPoint as="offset" />
          </mxGeometry>
        </mxCell>
        <mxCell id="6iyYh72mXwIMYlcsx8jP-15" value="i &amp;lt; n" style="rhombus;whiteSpace=wrap;html=1;" vertex="1" parent="1">
          <mxGeometry x="371" y="440" width="86" height="30" as="geometry" />
        </mxCell>
        <mxCell id="6iyYh72mXwIMYlcsx8jP-16" style="edgeStyle=orthogonalEdgeStyle;rounded=0;orthogonalLoop=1;jettySize=auto;html=1;exitX=0.5;exitY=1;exitDx=0;exitDy=0;entryX=0.5;entryY=0;entryDx=0;entryDy=0;" edge="1" parent="1" source="6iyYh72mXwIMYlcsx8jP-17" target="6iyYh72mXwIMYlcsx8jP-22">
          <mxGeometry relative="1" as="geometry" />
        </mxCell>
        <mxCell id="6iyYh72mXwIMYlcsx8jP-17" value="int j = 0;" style="rounded=0;whiteSpace=wrap;html=1;" vertex="1" parent="1">
          <mxGeometry x="371" y="510" width="86" height="30" as="geometry" />
        </mxCell>
        <mxCell id="6iyYh72mXwIMYlcsx8jP-18" style="edgeStyle=orthogonalEdgeStyle;rounded=0;orthogonalLoop=1;jettySize=auto;html=1;exitX=0.5;exitY=1;exitDx=0;exitDy=0;entryX=0.5;entryY=0;entryDx=0;entryDy=0;strokeWidth=3;" edge="1" parent="1" source="6iyYh72mXwIMYlcsx8jP-22" target="6iyYh72mXwIMYlcsx8jP-24">
          <mxGeometry relative="1" as="geometry">
            <mxPoint x="414" y="674" as="targetPoint" />
          </mxGeometry>
        </mxCell>
        <mxCell id="6iyYh72mXwIMYlcsx8jP-19" value="&lt;font style=&quot;font-size: 15px;&quot;&gt;Да&lt;/font&gt;" style="edgeLabel;html=1;align=center;verticalAlign=middle;resizable=0;points=[];" vertex="1" connectable="0" parent="6iyYh72mXwIMYlcsx8jP-18">
          <mxGeometry x="-0.2835" y="-2" relative="1" as="geometry">
            <mxPoint as="offset" />
          </mxGeometry>
        </mxCell>
        <mxCell id="6iyYh72mXwIMYlcsx8jP-20" style="edgeStyle=orthogonalEdgeStyle;rounded=0;orthogonalLoop=1;jettySize=auto;html=1;exitX=0;exitY=0.5;exitDx=0;exitDy=0;entryX=0;entryY=0.5;entryDx=0;entryDy=0;strokeWidth=3;" edge="1" parent="1" source="6iyYh72mXwIMYlcsx8jP-22" target="6iyYh72mXwIMYlcsx8jP-61">
          <mxGeometry relative="1" as="geometry">
            <Array as="points">
              <mxPoint x="70" y="585" />
              <mxPoint x="70" y="1680" />
            </Array>
          </mxGeometry>
        </mxCell>
        <mxCell id="6iyYh72mXwIMYlcsx8jP-21" value="&lt;font style=&quot;font-size: 15px;&quot;&gt;Нет&lt;/font&gt;" style="edgeLabel;html=1;align=center;verticalAlign=middle;resizable=0;points=[];" vertex="1" connectable="0" parent="6iyYh72mXwIMYlcsx8jP-20">
          <mxGeometry x="-0.9427" y="-1" relative="1" as="geometry">
            <mxPoint as="offset" />
          </mxGeometry>
        </mxCell>
        <mxCell id="6iyYh72mXwIMYlcsx8jP-22" value="j &amp;lt; m" style="rhombus;whiteSpace=wrap;html=1;" vertex="1" parent="1">
          <mxGeometry x="371" y="570" width="86" height="30" as="geometry" />
        </mxCell>
        <mxCell id="6iyYh72mXwIMYlcsx8jP-23" style="edgeStyle=orthogonalEdgeStyle;rounded=0;orthogonalLoop=1;jettySize=auto;html=1;exitX=0.5;exitY=1;exitDx=0;exitDy=0;entryX=0.5;entryY=0;entryDx=0;entryDy=0;strokeWidth=3;" edge="1" parent="1" source="6iyYh72mXwIMYlcsx8jP-24" target="6iyYh72mXwIMYlcsx8jP-29">
          <mxGeometry relative="1" as="geometry" />
        </mxCell>
        <mxCell id="6iyYh72mXwIMYlcsx8jP-24" value="&lt;div&gt;double oldTemp = this-&amp;gt;matrix[i][j];&lt;/div&gt;&lt;div&gt;double newTemp = 0.0f;&lt;/div&gt;" style="rounded=0;whiteSpace=wrap;html=1;" vertex="1" parent="1">
          <mxGeometry x="314" y="650" width="199" height="40" as="geometry" />
        </mxCell>
        <mxCell id="6iyYh72mXwIMYlcsx8jP-27" style="edgeStyle=orthogonalEdgeStyle;rounded=0;orthogonalLoop=1;jettySize=auto;html=1;exitX=0;exitY=0.5;exitDx=0;exitDy=0;entryX=0;entryY=0.5;entryDx=0;entryDy=0;strokeWidth=3;" edge="1" parent="1" source="6iyYh72mXwIMYlcsx8jP-29" target="6iyYh72mXwIMYlcsx8jP-59">
          <mxGeometry relative="1" as="geometry">
            <Array as="points">
              <mxPoint x="90" y="760" />
              <mxPoint x="90" y="1640" />
            </Array>
          </mxGeometry>
        </mxCell>
        <mxCell id="6iyYh72mXwIMYlcsx8jP-71" style="edgeStyle=orthogonalEdgeStyle;rounded=0;orthogonalLoop=1;jettySize=auto;html=1;exitX=0.5;exitY=1;exitDx=0;exitDy=0;entryX=0.5;entryY=0;entryDx=0;entryDy=0;strokeWidth=3;" edge="1" parent="1" source="6iyYh72mXwIMYlcsx8jP-29" target="6iyYh72mXwIMYlcsx8jP-70">
          <mxGeometry relative="1" as="geometry" />
        </mxCell>
        <mxCell id="6iyYh72mXwIMYlcsx8jP-29" value="&lt;div&gt;radius &amp;lt; (float) std::sqrt(std::pow(i - (float)(n / 2), 2) +&amp;nbsp;&lt;span style=&quot;background-color: initial;&quot;&gt;std::pow(j - (float)(m / 2), 2))&lt;/span&gt;&lt;/div&gt;" style="rhombus;whiteSpace=wrap;html=1;" vertex="1" parent="1">
          <mxGeometry x="196" y="730" width="436" height="60" as="geometry" />
        </mxCell>
        <mxCell id="6iyYh72mXwIMYlcsx8jP-58" style="edgeStyle=orthogonalEdgeStyle;rounded=0;orthogonalLoop=1;jettySize=auto;html=1;exitX=1;exitY=0.5;exitDx=0;exitDy=0;entryX=1;entryY=0.5;entryDx=0;entryDy=0;strokeWidth=3;" edge="1" parent="1" source="6iyYh72mXwIMYlcsx8jP-59" target="6iyYh72mXwIMYlcsx8jP-22">
          <mxGeometry relative="1" as="geometry">
            <Array as="points">
              <mxPoint x="730" y="1640" />
              <mxPoint x="730" y="585" />
            </Array>
          </mxGeometry>
        </mxCell>
        <mxCell id="6iyYh72mXwIMYlcsx8jP-59" value="j++" style="rounded=0;whiteSpace=wrap;html=1;" vertex="1" parent="1">
          <mxGeometry x="357.25" y="1630" width="66" height="20" as="geometry" />
        </mxCell>
        <mxCell id="6iyYh72mXwIMYlcsx8jP-60" style="edgeStyle=orthogonalEdgeStyle;rounded=0;orthogonalLoop=1;jettySize=auto;html=1;exitX=1;exitY=0.5;exitDx=0;exitDy=0;entryX=1;entryY=0.5;entryDx=0;entryDy=0;strokeWidth=3;" edge="1" parent="1" source="6iyYh72mXwIMYlcsx8jP-61" target="6iyYh72mXwIMYlcsx8jP-15">
          <mxGeometry relative="1" as="geometry">
            <Array as="points">
              <mxPoint x="760" y="1680" />
              <mxPoint x="760" y="455" />
            </Array>
          </mxGeometry>
        </mxCell>
        <mxCell id="6iyYh72mXwIMYlcsx8jP-61" value="i++" style="rounded=0;whiteSpace=wrap;html=1;" vertex="1" parent="1">
          <mxGeometry x="357.25" y="1670" width="66" height="20" as="geometry" />
        </mxCell>
        <mxCell id="6iyYh72mXwIMYlcsx8jP-62" style="edgeStyle=orthogonalEdgeStyle;rounded=0;orthogonalLoop=1;jettySize=auto;html=1;exitX=1;exitY=0.5;exitDx=0;exitDy=0;entryX=1;entryY=0.5;entryDx=0;entryDy=0;strokeWidth=3;" edge="1" parent="1" source="6iyYh72mXwIMYlcsx8jP-63" target="6iyYh72mXwIMYlcsx8jP-8">
          <mxGeometry relative="1" as="geometry">
            <Array as="points">
              <mxPoint x="790" y="1720" />
              <mxPoint x="790" y="315" />
            </Array>
          </mxGeometry>
        </mxCell>
        <mxCell id="6iyYh72mXwIMYlcsx8jP-63" value="count++" style="rounded=0;whiteSpace=wrap;html=1;" vertex="1" parent="1">
          <mxGeometry x="356.75" y="1710" width="66" height="20" as="geometry" />
        </mxCell>
        <mxCell id="6iyYh72mXwIMYlcsx8jP-64" value="Конец" style="rounded=1;whiteSpace=wrap;html=1;" vertex="1" parent="1">
          <mxGeometry x="130" y="302.5" width="80" height="25" as="geometry" />
        </mxCell>
        <mxCell id="6iyYh72mXwIMYlcsx8jP-68" style="edgeStyle=orthogonalEdgeStyle;rounded=0;orthogonalLoop=1;jettySize=auto;html=1;exitX=0.5;exitY=1;exitDx=0;exitDy=0;entryX=0.5;entryY=0;entryDx=0;entryDy=0;strokeWidth=3;" edge="1" parent="1" source="6iyYh72mXwIMYlcsx8jP-65" target="6iyYh72mXwIMYlcsx8jP-67">
          <mxGeometry relative="1" as="geometry" />
        </mxCell>
        <mxCell id="6iyYh72mXwIMYlcsx8jP-65" value="Подготовка матрицы" style="rounded=0;whiteSpace=wrap;html=1;" vertex="1" parent="1">
          <mxGeometry x="340" y="50" width="147" height="50" as="geometry" />
        </mxCell>
        <mxCell id="6iyYh72mXwIMYlcsx8jP-69" style="edgeStyle=orthogonalEdgeStyle;rounded=0;orthogonalLoop=1;jettySize=auto;html=1;exitX=0.5;exitY=1;exitDx=0;exitDy=0;entryX=0.5;entryY=0;entryDx=0;entryDy=0;strokeWidth=3;" edge="1" parent="1" source="6iyYh72mXwIMYlcsx8jP-67" target="6iyYh72mXwIMYlcsx8jP-8">
          <mxGeometry relative="1" as="geometry" />
        </mxCell>
        <mxCell id="6iyYh72mXwIMYlcsx8jP-67" value="Подготовка платформы, девайса, ядер (для сборки готовой матрицы и итераций матрицы), буфферов ввода и вывода и очереди команд&lt;br&gt;ReadyKernelRun = cl::Kernel(this-&amp;gt;ReadyProgramRun, &quot;collectNeighbors&quot;);" style="rounded=0;whiteSpace=wrap;html=1;" vertex="1" parent="1">
          <mxGeometry x="291.5" y="130" width="244" height="100" as="geometry" />
        </mxCell>
        <mxCell id="6iyYh72mXwIMYlcsx8jP-119" style="edgeStyle=orthogonalEdgeStyle;rounded=0;orthogonalLoop=1;jettySize=auto;html=1;exitX=0.5;exitY=1;exitDx=0;exitDy=0;entryX=0.5;entryY=0;entryDx=0;entryDy=0;strokeWidth=3;" edge="1" parent="1" source="6iyYh72mXwIMYlcsx8jP-70" target="6iyYh72mXwIMYlcsx8jP-72">
          <mxGeometry relative="1" as="geometry" />
        </mxCell>
        <mxCell id="6iyYh72mXwIMYlcsx8jP-70" value="float newTemp = valueGet(j, i);" style="rounded=0;whiteSpace=wrap;html=1;" vertex="1" parent="1">
          <mxGeometry x="326" y="810" width="176" height="30" as="geometry" />
        </mxCell>
        <mxCell id="6iyYh72mXwIMYlcsx8jP-118" style="edgeStyle=orthogonalEdgeStyle;rounded=0;orthogonalLoop=1;jettySize=auto;html=1;exitX=0.5;exitY=1;exitDx=0;exitDy=0;entryX=0.5;entryY=0;entryDx=0;entryDy=0;strokeWidth=3;" edge="1" parent="1" source="6iyYh72mXwIMYlcsx8jP-72" target="6iyYh72mXwIMYlcsx8jP-59">
          <mxGeometry relative="1" as="geometry" />
        </mxCell>
        <mxCell id="6iyYh72mXwIMYlcsx8jP-72" value="valueGet(int x, int y)" style="swimlane;whiteSpace=wrap;html=1;" vertex="1" parent="1">
          <mxGeometry x="124" y="870" width="580" height="720" as="geometry" />
        </mxCell>
        <mxCell id="6iyYh72mXwIMYlcsx8jP-75" style="edgeStyle=orthogonalEdgeStyle;rounded=0;orthogonalLoop=1;jettySize=auto;html=1;exitX=0.5;exitY=1;exitDx=0;exitDy=0;entryX=0.5;entryY=0;entryDx=0;entryDy=0;strokeWidth=3;" edge="1" parent="6iyYh72mXwIMYlcsx8jP-72" source="6iyYh72mXwIMYlcsx8jP-73" target="6iyYh72mXwIMYlcsx8jP-74">
          <mxGeometry relative="1" as="geometry" />
        </mxCell>
        <mxCell id="6iyYh72mXwIMYlcsx8jP-73" value="double temp = 0;&lt;br&gt;ReadylocalSize = cl::NDRange(1, 1);&lt;br&gt;ReadyglobalSizeNDRange = cl::NDRange((x &amp;gt; 0 ? 3 : 2), (y &amp;gt; 0 ? 3 : 2));&lt;br&gt;" style="rounded=0;whiteSpace=wrap;html=1;" vertex="1" parent="6iyYh72mXwIMYlcsx8jP-72">
          <mxGeometry x="131" y="30" width="328" height="70" as="geometry" />
        </mxCell>
        <mxCell id="6iyYh72mXwIMYlcsx8jP-77" style="edgeStyle=orthogonalEdgeStyle;rounded=0;orthogonalLoop=1;jettySize=auto;html=1;exitX=0.5;exitY=1;exitDx=0;exitDy=0;entryX=0.5;entryY=0;entryDx=0;entryDy=0;strokeWidth=3;" edge="1" parent="6iyYh72mXwIMYlcsx8jP-72" source="6iyYh72mXwIMYlcsx8jP-74" target="6iyYh72mXwIMYlcsx8jP-76">
          <mxGeometry relative="1" as="geometry" />
        </mxCell>
        <mxCell id="6iyYh72mXwIMYlcsx8jP-74" value="Создание и подготовка буферов ввода и вывода, аргументов ядра" style="rounded=0;whiteSpace=wrap;html=1;" vertex="1" parent="6iyYh72mXwIMYlcsx8jP-72">
          <mxGeometry x="184.5" y="130" width="221" height="40" as="geometry" />
        </mxCell>
        <mxCell id="6iyYh72mXwIMYlcsx8jP-117" style="edgeStyle=orthogonalEdgeStyle;rounded=0;orthogonalLoop=1;jettySize=auto;html=1;exitX=0.5;exitY=1;exitDx=0;exitDy=0;entryX=0.5;entryY=0;entryDx=0;entryDy=0;strokeWidth=3;" edge="1" parent="6iyYh72mXwIMYlcsx8jP-72" source="6iyYh72mXwIMYlcsx8jP-76" target="6iyYh72mXwIMYlcsx8jP-78">
          <mxGeometry relative="1" as="geometry" />
        </mxCell>
        <mxCell id="6iyYh72mXwIMYlcsx8jP-76" value="commandList.enqueueNDRangeKernel(ReadyKernelRun, cl::NullRange, this-&amp;gt;ReadyglobalSizeNDRange, this-&amp;gt;ReadylocalSize);" style="rounded=0;whiteSpace=wrap;html=1;" vertex="1" parent="6iyYh72mXwIMYlcsx8jP-72">
          <mxGeometry x="89.5" y="190" width="411" height="65" as="geometry" />
        </mxCell>
        <mxCell id="6iyYh72mXwIMYlcsx8jP-78" value="__kernel void collectNeighbors(__global double* input, __global double* output, int xpos, int ypos, int m, int n, double radius, __global double * testX, __global double * testY" style="swimlane;whiteSpace=wrap;html=1;startSize=51;" vertex="1" parent="6iyYh72mXwIMYlcsx8jP-72">
          <mxGeometry x="50" y="289" width="490" height="411" as="geometry" />
        </mxCell>
        <mxCell id="6iyYh72mXwIMYlcsx8jP-99" style="edgeStyle=orthogonalEdgeStyle;rounded=0;orthogonalLoop=1;jettySize=auto;html=1;exitX=0.5;exitY=1;exitDx=0;exitDy=0;entryX=0.5;entryY=0;entryDx=0;entryDy=0;strokeWidth=3;" edge="1" parent="6iyYh72mXwIMYlcsx8jP-78" source="6iyYh72mXwIMYlcsx8jP-79" target="6iyYh72mXwIMYlcsx8jP-80">
          <mxGeometry relative="1" as="geometry" />
        </mxCell>
        <mxCell id="6iyYh72mXwIMYlcsx8jP-79" value="__private int x = get_global_id(0);&lt;br&gt;__private int y = get_global_id(1);" style="rounded=0;whiteSpace=wrap;html=1;" vertex="1" parent="6iyYh72mXwIMYlcsx8jP-78">
          <mxGeometry x="130.37" y="71" width="199.5" height="39" as="geometry" />
        </mxCell>
        <mxCell id="6iyYh72mXwIMYlcsx8jP-89" style="edgeStyle=orthogonalEdgeStyle;rounded=0;orthogonalLoop=1;jettySize=auto;html=1;exitX=0.5;exitY=1;exitDx=0;exitDy=0;entryX=0.5;entryY=0;entryDx=0;entryDy=0;strokeWidth=3;" edge="1" parent="6iyYh72mXwIMYlcsx8jP-78" source="6iyYh72mXwIMYlcsx8jP-80" target="6iyYh72mXwIMYlcsx8jP-81">
          <mxGeometry relative="1" as="geometry" />
        </mxCell>
        <mxCell id="6iyYh72mXwIMYlcsx8jP-98" value="&lt;font style=&quot;font-size: 15px;&quot;&gt;Да&lt;/font&gt;" style="edgeLabel;html=1;align=center;verticalAlign=middle;resizable=0;points=[];" vertex="1" connectable="0" parent="6iyYh72mXwIMYlcsx8jP-89">
          <mxGeometry x="-0.1707" y="-2" relative="1" as="geometry">
            <mxPoint as="offset" />
          </mxGeometry>
        </mxCell>
        <mxCell id="6iyYh72mXwIMYlcsx8jP-112" style="edgeStyle=orthogonalEdgeStyle;rounded=0;orthogonalLoop=1;jettySize=auto;html=1;exitX=0;exitY=0.5;exitDx=0;exitDy=0;entryX=0.5;entryY=0;entryDx=0;entryDy=0;strokeWidth=3;" edge="1" parent="6iyYh72mXwIMYlcsx8jP-78" source="6iyYh72mXwIMYlcsx8jP-80" target="6iyYh72mXwIMYlcsx8jP-100">
          <mxGeometry relative="1" as="geometry" />
        </mxCell>
        <mxCell id="6iyYh72mXwIMYlcsx8jP-115" value="&lt;font style=&quot;font-size: 15px;&quot;&gt;Нет&lt;/font&gt;" style="edgeLabel;html=1;align=center;verticalAlign=middle;resizable=0;points=[];" vertex="1" connectable="0" parent="6iyYh72mXwIMYlcsx8jP-112">
          <mxGeometry x="-0.5667" relative="1" as="geometry">
            <mxPoint as="offset" />
          </mxGeometry>
        </mxCell>
        <mxCell id="6iyYh72mXwIMYlcsx8jP-80" value="x+xpos &amp;gt;= m || y+ypos &amp;gt;= n" style="rhombus;whiteSpace=wrap;html=1;" vertex="1" parent="6iyYh72mXwIMYlcsx8jP-78">
          <mxGeometry x="105.5" y="141" width="249.25" height="29" as="geometry" />
        </mxCell>
        <mxCell id="6iyYh72mXwIMYlcsx8jP-87" style="edgeStyle=orthogonalEdgeStyle;rounded=0;orthogonalLoop=1;jettySize=auto;html=1;exitX=0.5;exitY=1;exitDx=0;exitDy=0;entryX=0.5;entryY=0;entryDx=0;entryDy=0;strokeWidth=3;" edge="1" parent="6iyYh72mXwIMYlcsx8jP-78" source="6iyYh72mXwIMYlcsx8jP-81" target="6iyYh72mXwIMYlcsx8jP-86">
          <mxGeometry relative="1" as="geometry" />
        </mxCell>
        <mxCell id="6iyYh72mXwIMYlcsx8jP-88" value="&lt;font style=&quot;font-size: 15px;&quot;&gt;Да&lt;/font&gt;" style="edgeLabel;html=1;align=center;verticalAlign=middle;resizable=0;points=[];" vertex="1" connectable="0" parent="6iyYh72mXwIMYlcsx8jP-87">
          <mxGeometry x="-0.1746" relative="1" as="geometry">
            <mxPoint as="offset" />
          </mxGeometry>
        </mxCell>
        <mxCell id="6iyYh72mXwIMYlcsx8jP-114" style="edgeStyle=orthogonalEdgeStyle;rounded=0;orthogonalLoop=1;jettySize=auto;html=1;exitX=0;exitY=0.5;exitDx=0;exitDy=0;entryX=0.5;entryY=0;entryDx=0;entryDy=0;strokeWidth=3;" edge="1" parent="6iyYh72mXwIMYlcsx8jP-78" source="6iyYh72mXwIMYlcsx8jP-81" target="6iyYh72mXwIMYlcsx8jP-113">
          <mxGeometry relative="1" as="geometry" />
        </mxCell>
        <mxCell id="6iyYh72mXwIMYlcsx8jP-116" value="&lt;font style=&quot;font-size: 15px;&quot;&gt;Нет&lt;/font&gt;" style="edgeLabel;html=1;align=center;verticalAlign=middle;resizable=0;points=[];" vertex="1" connectable="0" parent="6iyYh72mXwIMYlcsx8jP-114">
          <mxGeometry x="-0.5442" y="2" relative="1" as="geometry">
            <mxPoint x="-2" y="-2" as="offset" />
          </mxGeometry>
        </mxCell>
        <mxCell id="6iyYh72mXwIMYlcsx8jP-81" value="radius &amp;lt; sqrt((float) (&lt;br&gt;pow((float)(xpos + x - (m / 2)), 2) +&amp;nbsp;&lt;br&gt;pow((float)(ypos + y - (n / 2)), 2))" style="rhombus;whiteSpace=wrap;html=1;" vertex="1" parent="6iyYh72mXwIMYlcsx8jP-78">
          <mxGeometry x="80.18" y="211" width="299.88" height="69" as="geometry" />
        </mxCell>
        <mxCell id="6iyYh72mXwIMYlcsx8jP-86" value="double save = input[m * (ypos+ y) + (xpos + x)];&lt;br&gt;output[get_global_size(0) * y + x] = save;" style="rounded=0;whiteSpace=wrap;html=1;" vertex="1" parent="6iyYh72mXwIMYlcsx8jP-78">
          <mxGeometry x="95.62" y="321" width="269" height="69" as="geometry" />
        </mxCell>
        <mxCell id="6iyYh72mXwIMYlcsx8jP-100" value="return" style="rounded=0;whiteSpace=wrap;html=1;" vertex="1" parent="6iyYh72mXwIMYlcsx8jP-78">
          <mxGeometry x="25" y="181" width="61" height="19" as="geometry" />
        </mxCell>
        <mxCell id="6iyYh72mXwIMYlcsx8jP-113" value="return" style="rounded=0;whiteSpace=wrap;html=1;" vertex="1" parent="6iyYh72mXwIMYlcsx8jP-78">
          <mxGeometry x="19.180000000000007" y="271" width="61" height="19" as="geometry" />
        </mxCell>
      </root>
    </mxGraphModel>
  </diagram>
</mxfile>
